# Blender v2.91.0 OBJ File: ''
# www.blender.org
mtllib dec_heart.mtl
o heart_lp
v 0.161136 1.559642 0.000000
v 0.045900 4.392007 0.794830
v -9.289383 16.956444 1.951894
v -7.710183 11.541849 0.000002
v -4.349961 12.527788 1.515706
v -11.737084 20.097960 2.667768
v -15.855521 20.726522 0.000003
v -13.354399 24.728245 3.925225
v -16.449400 32.156300 0.000005
v -16.000099 28.294701 2.390105
v -13.269135 31.841326 3.159130
v -9.966908 26.100658 4.894017
v -8.947872 33.527939 2.701078
v -10.266955 29.895750 4.503362
v -4.434580 34.604618 0.000006
v -0.370173 28.195383 3.123204
v 0.165800 31.220400 0.000005
v 3.599601 30.511343 3.418079
v 4.979695 34.671356 0.000005
v 5.379129 28.713238 4.360894
v 12.524947 35.393097 0.000006
v 9.800363 32.974453 3.031050
v 11.305015 29.023693 4.594622
v 15.710382 19.873713 0.000003
v 15.757441 24.945200 2.654055
v 12.538319 26.490065 4.503772
v 7.754698 11.203401 0.000002
v 10.135145 17.758766 2.128877
v 9.014358 22.279510 4.210904
v 4.713672 16.571402 2.851140
v 1.738314 9.179829 1.409203
v -12.170129 35.439373 0.000006
v 15.352690 30.679354 2.937137
v -4.320345 18.023525 3.391627
v -11.625100 15.475700 0.000003
v -5.200655 31.623720 3.364477
v -18.243958 27.139990 0.000004
v -0.418015 23.714876 4.507376
v 5.697339 24.130814 4.646382
v 16.792999 32.156399 0.000005
v 18.575598 27.350697 0.000005
v -3.653150 26.029419 4.540348
v 0.045900 4.392006 -0.794828
v -9.289382 16.956442 -1.951888
v -4.349961 12.527788 -1.515702
v -11.737083 20.097958 -2.667762
v -13.354399 24.728243 -3.925217
v -13.269181 31.841339 -3.159082
v -16.000099 28.294701 -2.390095
v -9.966882 26.100716 -4.894020
v -8.947910 33.527988 -2.701024
v -10.266710 29.895544 -4.503360
v -0.370173 28.195383 -3.123195
v 3.599602 30.511345 -3.418068
v 5.379130 28.713236 -4.360885
v 9.800364 32.974453 -3.031038
v 11.305016 29.023693 -4.594613
v 15.757440 24.945200 -2.654047
v 12.538319 26.490065 -4.503763
v 10.135147 17.758762 -2.128870
v 9.014357 22.279509 -4.210896
v 4.713670 16.571398 -2.851134
v 1.738314 9.179830 -1.409200
v 15.352689 30.679354 -2.937126
v -4.320344 18.023523 -3.391621
v -5.200655 31.623718 -3.364468
v -0.418016 23.714874 -4.507369
v 5.697339 24.130814 -4.646375
v -3.653151 26.029419 -4.540339
vt 0.796900 0.914100
vt 0.796900 0.914100
vt 0.796900 0.914100
vt 0.796900 0.914100
vt 0.796900 0.914100
vt 0.796900 0.914100
vt 0.300165 0.356115
vt 0.340026 0.350477
vt 0.324900 0.387900
vt 0.292900 0.468200
vt 0.297900 0.430200
vt 0.325814 0.463828
vt 0.609400 0.601600
vt 0.609400 0.601600
vt 0.609400 0.601600
vt 0.476637 0.430238
vt 0.477300 0.459000
vt 0.444400 0.482300
vt 0.609400 0.601600
vt 0.609400 0.601600
vt 0.609400 0.601600
vt 0.671900 0.898400
vt 0.671900 0.898400
vt 0.671900 0.898400
vt 0.671900 0.898400
vt 0.671900 0.898400
vt 0.671900 0.898400
vt 0.796900 0.914100
vt 0.796900 0.914100
vt 0.796900 0.914100
vt 0.671900 0.898400
vt 0.389309 0.264628
vt 0.478711 0.163935
vt 0.424647 0.270221
vt 0.479421 0.195190
vt 0.796900 0.914100
vt 0.796900 0.914100
vt 0.796900 0.914100
vt 0.671900 0.898400
vt 0.671900 0.898400
vt 0.789100 0.937500
vt 0.789100 0.937500
vt 0.789100 0.937500
vt 0.789100 0.937500
vt 0.789100 0.937500
vt 0.789100 0.937500
vt 0.276716 0.418995
vt 0.346400 0.303900
vt 0.373738 0.317956
vt 0.671900 0.898400
vt 0.671900 0.898400
vt 0.671900 0.898400
vt 0.796900 0.914100
vt 0.796900 0.914100
vt 0.796900 0.914100
vt 0.671900 0.898400
vt 0.609400 0.601600
vt 0.609400 0.601600
vt 0.341354 0.497304
vt 0.671900 0.898400
vt 0.796900 0.914100
vt 0.796900 0.914100
vt 0.796900 0.914100
vt 0.609400 0.601600
vt 0.416900 0.466300
vt 0.406000 0.497500
vt 0.377738 0.482933
vt 0.609400 0.601600
vt 0.609400 0.601600
vt 0.796900 0.914100
vt 0.796900 0.914100
vt 0.796900 0.914100
vt 0.531943 0.490645
vt 0.592000 0.481400
vt 0.613672 0.497141
vt 0.619600 0.475700
vt 0.661900 0.468200
vt 0.653400 0.446200
vt 0.678207 0.421054
vt 0.796900 0.898400
vt 0.796900 0.898400
vt 0.796900 0.898400
vt 0.671900 0.898400
vt 0.622100 0.413800
vt 0.650807 0.397060
vt 0.796900 0.914100
vt 0.796900 0.914100
vt 0.796900 0.914100
vt 0.671900 0.898400
vt 0.588991 0.322459
vt 0.562374 0.261159
vt 0.648429 0.348184
vt 0.671900 0.898400
vt 0.671900 0.898400
vt 0.671900 0.898400
vt 0.611200 0.353900
vt 0.796900 0.914100
vt 0.796900 0.914100
vt 0.671900 0.898400
vt 0.519482 0.317523
vt 0.522460 0.248913
vt 0.671900 0.898400
vt 0.789100 0.937500
vt 0.789100 0.937500
vt 0.789100 0.937500
vt 0.789100 0.937500
vt 0.789100 0.937500
vt 0.789100 0.937500
vt 0.671900 0.898400
vt 0.479421 0.195190
vt 0.379000 0.305700
vt 0.423991 0.276058
vt 0.324900 0.387900
vt 0.340534 0.364623
vt 0.327100 0.450900
vt 0.297900 0.430200
vt 0.796900 0.898400
vt 0.796900 0.898400
vt 0.796900 0.898400
vt 0.476637 0.430238
vt 0.796900 0.914100
vt 0.796900 0.914100
vt 0.671900 0.898400
vt 0.671900 0.898400
vt 0.671900 0.898400
vt 0.796900 0.898400
vt 0.796900 0.898400
vt 0.796900 0.898400
vt 0.376300 0.483900
vt 0.325100 0.471000
vt 0.671900 0.898400
vt 0.796900 0.914100
vt 0.438400 0.250500
vt 0.796900 0.914100
vt 0.789100 0.937500
vt 0.789100 0.937500
vt 0.789100 0.937500
vt 0.671900 0.898400
vt 0.671900 0.898400
vt 0.671900 0.898400
vt 0.671900 0.898400
vt 0.671900 0.898400
vt 0.671900 0.898400
vt 0.796900 0.914100
vt 0.796900 0.914100
vt 0.671900 0.898400
vt 0.671900 0.898400
vt 0.796900 0.914100
vt 0.671900 0.898400
vt 0.796900 0.914100
vt 0.796900 0.914100
vt 0.416900 0.466300
vt 0.796900 0.914100
vt 0.796900 0.914100
vt 0.796900 0.914100
vt 0.671900 0.898400
vt 0.796900 0.898400
vt 0.796900 0.898400
vt 0.796900 0.898400
vt 0.592000 0.481400
vt 0.645586 0.453020
vt 0.796900 0.898400
vt 0.796900 0.898400
vt 0.796900 0.898400
vt 0.671900 0.898400
vt 0.650807 0.397060
vt 0.622100 0.413800
vt 0.671900 0.898400
vt 0.591731 0.325988
vt 0.789100 0.937500
vt 0.789100 0.937500
vt 0.789100 0.937500
vt 0.671900 0.898400
vt 0.789100 0.937500
vt 0.539235 0.274145
vt 0.671900 0.898400
vt 0.671900 0.898400
vt 0.517000 0.240700
vt 0.539194 0.318641
vt 0.789100 0.937500
vt 0.671900 0.898400
vt 0.671900 0.898400
vt 0.671900 0.898400
vt 0.796900 0.898400
vt 0.796900 0.898400
vt 0.789100 0.937500
vt 0.789100 0.937500
vt 0.789100 0.937500
vt 0.789100 0.937500
vt 0.671900 0.898400
vt 0.789100 0.937500
vn 0.3112 -0.2450 0.9182
vn -0.2783 -0.3965 0.8748
vn -0.5389 -0.4113 0.7351
vn -0.5388 -0.4124 0.7346
vn -0.5417 -0.3912 0.7440
vn -0.6433 0.3474 0.6822
vn -0.0898 0.4687 0.8788
vn 0.4444 0.6041 0.6614
vn -0.4498 0.6688 0.5920
vn -0.4583 0.6600 0.5953
vn -0.4652 0.6490 0.6020
vn -0.0552 0.3492 0.9354
vn -0.0441 -0.1118 0.9928
vn -0.1903 0.6799 0.7082
vn -0.3406 0.6786 0.6507
vn -0.3650 0.6732 0.6431
vn 0.1898 0.4230 0.8860
vn -0.3320 -0.2618 0.9062
vn -0.3458 -0.2665 0.8997
vn -0.4153 -0.4133 0.8104
vn -0.5359 -0.4317 0.7256
vn -0.1713 -0.3174 0.9327
vn -0.1875 -0.3164 0.9299
vn -0.2010 -0.3155 0.9274
vn 0.1322 0.5481 0.8259
vn 0.0572 0.4270 0.9024
vn 0.1689 0.6016 0.7808
vn -0.1888 -0.3557 0.9153
vn -0.6784 -0.2527 0.6899
vn -0.3704 -0.4710 0.8006
vn -0.1450 -0.3062 0.9409
vn -0.6694 -0.1872 0.7189
vn -0.7637 0.2732 0.5850
vn -0.3127 0.1054 0.9440
vn -0.3915 0.1032 0.9144
vn -0.5006 0.6525 0.5690
vn -0.0373 0.0994 0.9943
vn -0.2468 0.0799 0.9658
vn -0.3719 0.0659 0.9259
vn 0.0930 0.8617 0.4988
vn 0.4638 0.6081 0.6443
vn -0.4409 0.6814 0.5843
vn 0.2364 0.6999 0.6740
vn -0.1746 -0.2967 0.9389
vn -0.1768 0.3156 0.9323
vn -0.1416 0.3458 0.9276
vn -0.0961 0.3860 0.9175
vn -0.2181 0.6617 0.7173
vn -0.0777 0.8122 0.5782
vn 0.0765 0.7447 0.6630
vn 0.1179 0.7225 0.6812
vn 0.2689 0.6204 0.7368
vn 0.6535 0.5004 0.5679
vn 0.4957 0.6537 0.5718
vn 0.6683 0.4764 0.5713
vn 0.7916 0.2936 0.5359
vn 0.3308 0.1275 0.9351
vn -0.0372 0.0605 0.9975
vn -0.0326 0.0599 0.9977
vn -0.0424 0.0592 0.9973
vn 0.4953 -0.0079 0.8687
vn 0.7768 -0.2977 0.5550
vn 0.7313 -0.1093 0.6733
vn 0.7505 -0.1833 0.6350
vn 0.0284 -0.0220 0.9994
vn 0.4394 -0.4169 0.7957
vn 0.3499 -0.3794 0.8565
vn 0.4595 -0.4168 0.7843
vn 0.3382 -0.3440 0.8759
vn 0.2946 -0.3429 0.8920
vn 0.3354 -0.3330 0.8813
vn 0.0624 -0.1212 0.9907
vn 0.2531 -0.3522 0.9010
vn 0.4578 -0.4156 0.7860
vn 0.3020 -0.2588 0.9175
vn 0.2015 -0.3681 0.9077
vn 0.2927 -0.2228 0.9299
vn 0.0846 -0.2399 0.9671
vn 0.0186 -0.2449 0.9694
vn 0.0234 -0.2178 0.9757
vn 0.0729 -0.2191 0.9730
vn 0.1830 -0.2587 0.9485
vn -0.1586 -0.3182 0.9347
vn 0.0537 -0.1462 0.9878
vn 0.2322 0.2612 0.9370
vn -0.2258 0.2677 0.9367
vn 0.2143 0.2862 0.9339
vn -0.2263 0.2897 0.9300
vn 0.6802 0.0118 0.7330
vn -0.0516 -0.1581 0.9861
vn -0.0097 -0.1860 0.9825
vn -0.0415 -0.1647 0.9855
vn -0.0861 -0.1345 0.9872
vn 0.0085 -0.2146 0.9767
vn -0.0268 0.0603 0.9978
vn 0.0568 0.1067 0.9927
vn 0.1345 0.2393 0.9616
vn 0.3112 -0.2450 -0.9182
vn -0.2783 -0.3965 -0.8748
vn -0.5389 -0.4113 -0.7351
vn -0.5416 -0.3912 -0.7440
vn -0.5388 -0.4124 -0.7346
vn -0.6433 0.3474 -0.6822
vn -0.0898 0.4686 -0.8788
vn 0.4444 0.6041 -0.6614
vn -0.4498 0.6688 -0.5920
vn -0.4652 0.6490 -0.6020
vn -0.4583 0.6600 -0.5953
vn -0.0552 0.3492 -0.9354
vn -0.0441 -0.1118 -0.9928
vn -0.1903 0.6799 -0.7082
vn -0.3678 0.6744 -0.6402
vn -0.3385 0.6765 -0.6540
vn 0.1898 0.4230 -0.8860
vn -0.3320 -0.2618 -0.9062
vn -0.3458 -0.2665 -0.8997
vn -0.4153 -0.4133 -0.8104
vn -0.5359 -0.4317 -0.7256
vn -0.1713 -0.3174 -0.9327
vn -0.2010 -0.3155 -0.9274
vn -0.1875 -0.3164 -0.9299
vn 0.1322 0.5499 -0.8247
vn 0.1667 0.6018 -0.7811
vn 0.0572 0.4270 -0.9024
vn -0.1888 -0.3557 -0.9153
vn -0.6784 -0.2527 -0.6899
vn -0.3704 -0.4710 -0.8006
vn -0.1450 -0.3062 -0.9409
vn -0.6694 -0.1872 -0.7189
vn -0.7637 0.2732 -0.5850
vn -0.3127 0.1054 -0.9440
vn -0.3915 0.1032 -0.9144
vn -0.5006 0.6525 -0.5690
vn -0.0373 0.0994 -0.9943
vn -0.3718 0.0659 -0.9260
vn -0.2468 0.0799 -0.9658
vn 0.0930 0.8617 -0.4988
vn 0.4638 0.6081 -0.6443
vn -0.4409 0.6814 -0.5843
vn 0.2364 0.6999 -0.6740
vn -0.1746 -0.2967 -0.9389
vn -0.1749 0.3183 -0.9317
vn -0.0961 0.3860 -0.9175
vn -0.1430 0.3424 -0.9286
vn -0.2181 0.6617 -0.7173
vn -0.0777 0.8122 -0.5782
vn 0.1186 0.7214 -0.6823
vn 0.0750 0.7447 -0.6632
vn 0.2689 0.6204 -0.7368
vn 0.6545 0.4960 -0.5707
vn 0.6675 0.4812 -0.5682
vn 0.4957 0.6537 -0.5718
vn 0.7916 0.2936 -0.5359
vn 0.3308 0.1275 -0.9351
vn -0.0355 0.0599 -0.9976
vn -0.0424 0.0592 -0.9973
vn -0.0326 0.0599 -0.9977
vn 0.4953 -0.0079 -0.8687
vn 0.7768 -0.2977 -0.5550
vn 0.7519 -0.1799 -0.6342
vn 0.7300 -0.1134 -0.6740
vn 0.0284 -0.0220 -0.9994
vn 0.4411 -0.4160 -0.7952
vn 0.4571 -0.4184 -0.7849
vn 0.3499 -0.3794 -0.8565
vn 0.3382 -0.3440 -0.8759
vn 0.3354 -0.3330 -0.8813
vn 0.2948 -0.3405 -0.8928
vn 0.0624 -0.1212 -0.9907
vn 0.2531 -0.3522 -0.9010
vn 0.4578 -0.4156 -0.7860
vn 0.3020 -0.2588 -0.9175
vn 0.2015 -0.3681 -0.9077
vn 0.2927 -0.2228 -0.9299
vn 0.0847 -0.2402 -0.9670
vn 0.0234 -0.2178 -0.9757
vn 0.0186 -0.2449 -0.9694
vn 0.1830 -0.2587 -0.9485
vn 0.0729 -0.2191 -0.9730
vn -0.1586 -0.3182 -0.9347
vn 0.0537 -0.1462 -0.9878
vn 0.2322 0.2612 -0.9370
vn -0.2258 0.2677 -0.9367
vn 0.2143 0.2862 -0.9339
vn -0.2263 0.2897 -0.9300
vn 0.6802 0.0118 -0.7330
vn -0.0518 -0.1577 -0.9861
vn -0.0415 -0.1647 -0.9855
vn -0.0097 -0.1860 -0.9825
vn -0.0861 -0.1345 -0.9872
vn 0.0085 -0.2146 -0.9767
vn -0.0268 0.0603 -0.9978
vn 0.0568 0.1067 -0.9927
vn 0.1345 0.2393 -0.9616
usemtl 01___Default
s 1
f 27/1/1 2/2/1 1/3/1
f 3/4/2 4/5/2 5/6/2
f 7/7/3 6/8/4 8/9/5
f 9/10/6 10/11/6 11/12/6
f 13/13/7 11/14/7 14/15/7
f 16/16/8 17/17/8 15/18/8
f 17/19/9 18/20/10 19/21/11
f 23/22/12 22/23/12 20/24/12
f 5/25/13 2/26/13 31/27/13
f 13/28/14 32/29/15 11/30/16
f 33/31/17 22/23/17 23/22/17
f 4/32/18 1/33/18 5/34/18
f 5/34/19 1/33/19 2/35/19
f 35/36/20 4/5/20 3/4/20
f 6/37/4 7/38/3 35/36/21
f 5/25/22 34/39/23 3/40/24
f 13/41/25 14/42/26 36/43/27
f 34/44/28 6/45/28 3/46/28
f 7/7/29 8/9/29 37/47/29
f 6/8/30 35/48/30 3/49/30
f 6/50/31 12/51/31 8/52/31
f 37/53/32 8/54/32 10/55/32
f 9/10/33 37/47/33 10/11/33
f 12/51/34 11/56/34 8/52/34
f 11/14/35 10/57/35 8/58/35
f 32/59/15 9/10/36 11/12/16
f 12/51/37 14/60/38 11/56/39
f 15/61/40 32/29/40 13/28/40
f 16/62/41 15/61/41 36/63/41
f 18/20/10 17/19/9 16/64/42
f 36/65/27 15/66/43 13/67/25
f 34/39/44 12/51/44 6/50/44
f 18/20/45 20/68/46 22/69/47
f 18/70/48 22/71/48 19/72/48
f 19/73/49 22/74/50 21/75/51
f 21/75/51 22/74/50 33/76/52
f 40/77/53 21/75/54 33/76/55
f 40/77/53 33/78/55 41/79/56
f 33/80/57 23/81/57 26/82/57
f 20/24/58 39/83/59 23/22/60
f 33/78/61 26/84/61 25/85/61
f 24/86/62 41/87/63 25/88/64
f 23/22/65 39/83/65 26/89/65
f 28/90/66 27/91/67 24/92/68
f 26/89/69 29/93/70 25/94/71
f 26/89/72 39/83/72 29/93/72
f 25/94/71 29/93/70 28/95/73
f 24/92/68 25/85/74 28/96/66
f 28/97/66 31/98/75 27/1/67
f 30/99/76 28/95/73 29/93/70
f 2/2/77 27/1/67 31/98/75
f 30/99/78 29/93/79 34/39/80
f 30/100/78 31/101/81 28/90/82
f 34/39/23 5/25/22 31/27/83
f 42/102/84 12/51/84 34/39/84
f 34/39/80 31/27/81 30/99/78
f 16/103/85 36/43/85 42/104/85
f 18/105/45 16/103/86 20/106/46
f 16/103/87 42/104/87 38/107/87
f 16/103/88 38/107/88 20/106/88
f 33/78/89 25/85/64 41/79/63
f 34/44/90 39/108/91 38/107/92
f 42/102/93 34/39/90 38/109/92
f 34/39/94 29/93/94 39/83/94
f 39/83/59 20/24/58 38/109/95
f 14/60/38 12/51/37 42/102/96
f 14/42/97 42/104/97 36/43/97
f 27/91/98 1/33/98 43/110/98
f 44/111/99 45/112/99 4/32/99
f 7/7/100 47/113/101 46/114/102
f 9/10/103 48/115/103 49/116/103
f 51/117/104 52/118/104 48/119/104
f 53/120/105 15/18/105 17/17/105
f 17/121/106 19/72/107 54/122/108
f 57/123/109 55/124/109 56/125/109
f 45/126/110 63/127/110 43/128/110
f 51/129/111 48/130/112 32/59/113
f 64/131/114 57/123/114 56/125/114
f 4/5/115 45/132/115 1/3/115
f 45/133/116 43/110/116 1/33/116
f 35/48/117 44/111/117 4/32/117
f 46/134/102 35/36/118 7/38/100
f 45/135/119 44/136/120 65/137/121
f 51/138/122 66/139/123 52/140/124
f 65/141/125 44/142/125 46/143/125
f 7/38/126 37/53/126 47/144/126
f 46/134/127 44/145/127 35/36/127
f 46/143/128 47/146/128 50/147/128
f 37/53/129 49/148/129 47/144/129
f 9/10/130 49/116/130 37/47/130
f 50/147/131 47/146/131 48/149/131
f 48/150/132 47/144/132 49/148/132
f 32/29/113 48/150/112 9/151/133
f 50/147/134 48/149/135 52/140/136
f 15/66/137 51/129/137 32/59/137
f 53/120/138 66/152/138 15/18/138
f 54/122/108 53/153/139 17/121/106
f 66/154/123 51/155/122 15/61/140
f 65/141/141 46/143/141 50/147/141
f 54/156/142 56/125/143 55/124/144
f 54/157/145 19/158/145 56/159/145
f 19/73/146 21/75/147 56/160/148
f 21/75/147 64/161/149 56/160/148
f 40/77/150 64/161/151 21/75/152
f 40/77/150 41/79/153 64/161/151
f 64/162/154 59/163/154 57/164/154
f 55/124/155 57/123/156 68/165/157
f 64/161/158 58/166/158 59/167/158
f 24/92/159 58/166/160 41/79/161
f 57/123/162 59/168/162 68/165/162
f 60/169/163 24/92/164 27/91/165
f 59/170/166 58/171/167 61/172/168
f 59/168/169 61/173/169 68/165/169
f 58/171/167 60/174/170 61/172/168
f 24/92/164 60/169/163 58/166/171
f 60/169/163 27/91/165 63/175/172
f 62/176/173 61/173/168 60/177/170
f 43/110/174 63/178/172 27/91/165
f 62/176/175 65/141/176 61/173/177
f 62/179/175 60/169/178 63/175/179
f 65/137/121 63/180/180 45/135/119
f 69/181/181 65/141/181 50/147/181
f 65/141/176 62/176/175 63/182/179
f 53/183/182 69/181/182 66/139/182
f 54/157/142 55/184/144 53/185/183
f 53/186/184 67/187/184 69/188/184
f 53/186/185 55/189/185 67/187/185
f 64/161/186 41/79/161 58/166/160
f 65/141/187 67/190/188 68/165/189
f 69/181/190 67/190/188 65/141/187
f 65/141/191 68/165/191 61/173/191
f 68/191/157 67/187/192 55/189/155
f 52/140/136 69/181/193 50/147/134
f 52/140/194 66/139/194 69/181/194
